<svg width="26" height="24" viewBox="0 0 26 24" fill="none" xmlns="http://www.w3.org/2000/svg">
<path fill-rule="evenodd" clip-rule="evenodd" d="M4.20033 3.4586C6.59271 1.28371 9.70983 0.0786133 12.943 0.0786133C16.1762 0.0786133 19.2934 1.28371 21.6857 3.4586C24.0781 5.63349 25.5739 8.62199 25.8812 11.8406C25.9101 12.1431 25.81 12.4437 25.6056 12.6686C25.4011 12.8934 25.1114 13.0216 24.8075 13.0216H14.0216V19.4932C14.0216 20.0653 14.2489 20.614 14.6534 21.0185C15.058 21.423 15.6067 21.6503 16.1788 21.6503C16.7509 21.6503 17.2996 21.423 17.7041 21.0185C18.1087 20.614 18.336 20.0653 18.336 19.4932C18.336 18.8975 18.8189 18.4146 19.4145 18.4146C20.0102 18.4146 20.4931 18.8975 20.4931 19.4932C20.4931 20.6374 20.0386 21.7348 19.2295 22.5439C18.4204 23.3529 17.323 23.8075 16.1788 23.8075C15.0346 23.8075 13.9372 23.3529 13.1281 22.5439C12.319 21.7348 11.8644 20.6374 11.8644 19.4932V13.0216H1.07859C0.774704 13.0216 0.484917 12.8934 0.280501 12.6686C0.0760853 12.4437 -0.0239914 12.1431 0.00488474 11.8406C0.312112 8.62199 1.80796 5.63349 4.20033 3.4586ZM23.5549 10.8645C23.0907 8.63619 21.9338 6.59944 20.2347 5.05478C18.2394 3.24087 15.6396 2.23578 12.943 2.23578C10.2465 2.23578 7.6467 3.24087 5.6514 5.05478C3.95227 6.59944 2.79537 8.63619 2.33112 10.8645H23.5549Z" fill="#0074D9"/>
</svg>
